name ./resultDataOpenSim/trcMotMarkerGrf/sub06/grf-15-07.mot
datacolumns 19
datarows 22
range 1.06000000 1.14400000
endheader

                time	     ground_force_vx	     ground_force_vy	     ground_force_vz	     ground_force_px	     ground_force_py	     ground_force_pz	   l_ground_force_vx	   l_ground_force_vy	   l_ground_force_vz	   l_ground_force_px	   l_ground_force_py	   l_ground_force_pz	     ground_torque_x	     ground_torque_y	     ground_torque_z	   l_ground_torque_x	   l_ground_torque_y	   l_ground_torque_z	
          1.06000000	          0.00000000	          0.00000000	          0.00000000	          0.00000000	          0.00000000	          0.00000000	        150.67486027	        557.85447808	         -1.41557687	          0.12779410	         -0.10000000	         -0.02918660	          0.00000000	          0.00000000	          0.00000000	          0.00000000	         -2.62916347	          0.00000000	
          1.06400000	          0.00000000	          0.00000000	          0.00000000	          0.00000000	          0.00000000	          0.00000000	        152.16010680	        539.73771708	         -2.12926595	          0.12841156	         -0.09999964	         -0.02881962	          0.00000000	          0.00000000	          0.00000000	          0.00000000	         -2.58731680	          0.00000000	
          1.06800000	          0.00000000	          0.00000000	          0.00000000	          0.00000000	          0.00000000	          0.00000000	        152.26696631	        518.29189804	         -2.78500006	          0.12904910	         -0.09999900	         -0.02846316	          0.00000000	          0.00000000	          0.00000000	          0.00000000	         -2.54727555	          0.00000000	
          1.07200000	          0.00000000	          0.00000000	          0.00000000	          0.00000000	          0.00000000	          0.00000000	        150.83104065	        493.33906290	         -3.43197119	          0.12975626	         -0.09999872	         -0.02809710	          0.00000000	          0.00000000	          0.00000000	          0.00000000	         -2.50768295	          0.00000000	
          1.07600000	          0.00000000	          0.00000000	          0.00000000	          0.00000000	          0.00000000	          0.00000000	        147.70003213	        464.76369110	         -4.10304108	          0.13061205	         -0.09999800	         -0.02769208	          0.00000000	          0.00000000	          0.00000000	          0.00000000	         -2.46464497	          0.00000000	
          1.08000000	         -1.49259950	         69.61097751	         -1.42434257	          0.80844353	          0.00000000	          0.05406457	        142.72654257	        432.61059776	         -4.79696047	          0.13167329	         -0.09999800	         -0.02722212	          0.00000000	          0.77994338	          0.00000000	          0.00000000	         -2.41160555	          0.00000000	
          1.08400000	        -29.50478815	        329.32834089	          1.53791221	          0.81620889	          0.00000000	          0.05313221	        135.77044162	        397.18559788	         -5.48297704	          0.13295718	         -0.09999784	         -0.02667760	          0.00000000	          1.32121642	          0.00000000	          0.00000000	         -2.34005538	          0.00000000	
          1.08800000	        -60.75004515	        559.55899356	          4.49718941	          0.82350519	          0.00000000	          0.05232997	        126.77207434	        359.13583686	         -6.10144971	          0.13451283	         -0.09999700	         -0.02605267	          0.00000000	          1.81445795	          0.00000000	          0.00000000	         -2.24099704	          0.00000000	
          1.09200000	        -96.82854458	        736.43499059	          7.24882837	          0.83067026	          0.00000000	          0.05177587	        115.91037013	        319.48459295	         -6.55630590	          0.13641439	         -0.09999700	         -0.02532307	          0.00000000	          2.21099087	          0.00000000	          0.00000000	         -2.10689709	          0.00000000	
          1.09600000	       -136.20319886	        848.28051943	          9.61571688	          0.83724261	          0.00000000	          0.05159760	        103.70608167	        279.56717477	         -6.73161015	          0.13871864	         -0.09999696	         -0.02449001	          0.00000000	          2.46153464	          0.00000000	          0.00000000	         -1.93382913	          0.00000000	
          1.10000000	       -174.91731679	        898.92978014	         11.54868460	          0.84296346	          0.00000000	          0.05163879	         90.92764894	        240.86116488	         -6.54810178	          0.14138040	         -0.09999600	         -0.02359107	          0.00000000	          2.52547880	          0.00000000	          0.00000000	         -1.72338143	          0.00000000	
          1.10400000	       -209.65151453	        903.73926850	         13.00751940	          0.84809909	          0.00000000	          0.05160926	         78.36844252	        204.70892585	         -6.00812736	          0.14415143	         -0.09999504	         -0.02265579	          0.00000000	          2.38194225	          0.00000000	          0.00000000	         -1.48353215	          0.00000000	
          1.10800000	       -239.60594131	        881.50473154	         13.75895629	          0.85338576	          0.00000000	          0.05143865	         66.66962157	        171.98440398	         -5.16966653	          0.14669001	         -0.09999500	         -0.02170539	          0.00000000	          2.03932139	          0.00000000	          0.00000000	         -1.22767138	          0.00000000	
          1.11200000	       -265.18923264	        848.65984987	         13.50248131	          0.85909502	          0.00000000	          0.05129197	         56.22922068	        142.94428807	         -4.08310836	          0.14888619	         -0.09999632	         -0.02074505	          0.00000000	          1.53896548	          0.00000000	          0.00000000	         -0.97190581	          0.00000000	
          1.11600000	       -286.10414785	        817.93000769	         12.24194213	          0.86470853	          0.00000000	          0.05132003	         47.15994369	        117.41119273	         -2.77325161	          0.15078360	         -0.09999776	         -0.01974132	          0.00000000	          0.94913936	          0.00000000	          0.00000000	         -0.73187513	          0.00000000	
          1.12000000	       -301.44345748	        798.63587782	         10.38602525	          0.86935058	          0.00000000	          0.05150366	         39.31758775	         95.04078575	         -1.27261739	          0.15231683	         -0.09999800	         -0.01868722	          0.00000000	          0.34970294	          0.00000000	          0.00000000	         -0.52020161	          0.00000000	
          1.12400000	       -310.94968129	        796.18167234	          8.46526832	          0.87258187	          0.00000000	          0.05167965	         32.38787213	         75.40796833	          0.34991574	          0.15331469	         -0.09999724	         -0.01755709	          0.00000000	         -0.18642564	          0.00000000	          0.00000000	         -0.34481374	          0.00000000	
          1.12800000	       -315.44476989	        811.33417396	          6.78420584	          0.87454973	          0.00000000	          0.05169362	         25.97888303	         58.02108242	          1.98598275	          0.15365028	         -0.09999772	         -0.01627403	          0.00000000	         -0.60629940	          0.00000000	          0.00000000	         -0.20806941	          0.00000000	
          1.13200000	       -316.24574677	        840.84344603	          5.25083187	          0.87546465	          0.00000000	          0.05153820	         19.73889356	         42.41418713	          3.50986861	          0.15317062	         -0.09999868	         -0.01477595	          0.00000000	         -0.87887652	          0.00000000	          0.00000000	         -0.10689043	          0.00000000	
          1.13600000	       -314.74317224	        879.48213148	          3.53560377	          0.87534947	          0.00000000	          0.05133458	         13.49717612	         28.22867605	          4.83395053	          0.15114609	         -0.09999900	         -0.01319556	          0.00000000	         -0.98790308	          0.00000000	          0.00000000	         -0.03410065	          0.00000000	
          1.14000000	       -312.54854959	        922.11322198	          1.48567073	          0.87438341	          0.00000000	          0.05117160	          7.33557479	         15.23022460	          5.95857029	          0.14582594	         -0.09999900	         -0.01182144	          0.00000000	         -0.92445787	          0.00000000	          0.00000000	          0.01932924	          0.00000000	
          1.14400000	       -311.39081064	        964.50988766	         -0.67190156	          0.87310545	          0.00000000	          0.05102898	          0.00000000	          0.00000000	          0.00000000	          0.00000000	          0.00000000	          0.00000000	          0.00000000	         -0.68774298	          0.00000000	          0.00000000	          0.00000000	          0.00000000	
